<svg xmlns="http://www.w3.org/2000/svg" height="1em" fill="none" viewBox="0 0 202 47"> <path fill="currentColor" d="M.26 46.23V.2h38.4c1.4 0 2.69.36 3.84 1.09a7.39 7.39 0 0 1 3.84 6.6v13.5c0 1.4-.34 2.68-1.03 3.84a8.09 8.09 0 0 1-2.81 2.81 7.39 7.39 0 0 1-3.84 1.03H5.44v17.15H.26Zm7.68-22.4h30.72c.68 0 1.26-.24 1.73-.7.5-.47.76-1.05.76-1.73V7.9c0-.69-.25-1.27-.76-1.74a2.25 2.25 0 0 0-1.73-.76H7.94c-.68 0-1.28.25-1.8.76-.46.47-.7 1.05-.7 1.73v13.5c0 .69.24 1.27.7 1.73.52.47 1.12.7 1.8.7Zm43.7 22.4V7.83c0-1.41.34-2.69 1.02-3.84a7.58 7.58 0 0 1 2.75-2.82 7.73 7.73 0 0 1 3.9-1.02h30.73c1.4 0 2.68.34 3.84 1.02A7.44 7.44 0 0 1 96.69 4a7.39 7.39 0 0 1 1.03 3.84v38.4h-5.19V29.4h-35.7v16.83h-5.2Zm5.18-22.02h35.71V7.83c0-.68-.25-1.26-.77-1.73a2.25 2.25 0 0 0-1.72-.77H59.32c-.69 0-1.28.26-1.8.77-.46.47-.7 1.05-.7 1.73V24.2Zm55.87 22.02c-1.4 0-2.71-.34-3.9-1.03a7.73 7.73 0 0 1-2.76-2.75 7.73 7.73 0 0 1-1.02-3.9V7.83c0-1.41.34-2.69 1.02-3.84a7.58 7.58 0 0 1 2.75-2.82 7.73 7.73 0 0 1 3.9-1.02h38.28v5.18H112.7c-.68 0-1.28.26-1.8.77-.46.47-.7 1.05-.7 1.73v30.72c0 .68.24 1.28.7 1.79.52.47 1.12.7 1.8.7h38.27v5.19H112.7Zm63.12 0V5.33h-20.48V.15h46.08v5.18h-20.42v40.9h-5.18Z"></path> </svg>