<svg class="bi" xmlns="http://www.w3.org/2000/svg" height="24" stroke="currentColor" fill="none" viewBox="0 0 24 24">
					<path fill="#currentColor" d="M9 16a1 1 0 1 1-2 0 1 1 0 0 1 2 0ZM13 16a1 1 0 1 1-2 0 1 1 0 0 1 2 0ZM17 16a1 1 0 1 1-2 0 1 1 0 0 1 2 0Z"></path>
					<path stroke-linecap="round" stroke-width="1.5" d="M6 10V8c0-.34.03-.67.08-1M18 10V8A6 6 0 0 0 7.5 4.03M11 22H8c-2.83 0-4.24 0-5.12-.88C2 20.24 2 18.82 2 16c0-2.83 0-4.24.88-5.12C3.76 10 5.18 10 8 10h8c2.83 0 4.24 0 5.12.88.88.88.88 2.3.88 5.12 0 2.83 0 4.24-.88 5.12-.88.88-2.3.88-5.12.88h-1"></path>
				</svg>