<svg class="bi me-2" xmlns="http://www.w3.org/2000/svg" height="1.6em" stroke="currentColor" fill="none" viewBox="0 0 24 24">
							<path stroke-linecap="round" stroke-width="1.5" d="M21.48 19c-.04.94-.16 1.51-.57 1.91-.58.59-1.52.59-3.41.59-1.89 0-2.83 0-3.41-.59-.59-.58-.59-1.52-.59-3.41v-2c0-1.89 0-2.83.59-3.41.58-.59 1.52-.59 3.41-.59 1.89 0 2.83 0 3.41.59.54.53.59 1.35.59 2.91"></path>
							<path stroke-width="1.5" d="M2 8.5c0 1.89 0 2.83.59 3.41.58.59 1.52.59 3.41.59 1.89 0 2.83 0 3.41-.59.59-.58.59-1.52.59-3.41v-2c0-1.89 0-2.83-.59-3.41C8.83 2.5 7.9 2.5 6 2.5c-1.89 0-2.83 0-3.41.59C2 3.67 2 4.6 2 6.5v2Z"></path>
							<path stroke-linecap="round" stroke-width="1.5" d="M15.5 2.51c-.33.02-.56.06-.77.14a2 2 0 0 0-1.08 1.08c-.15.37-.15.84-.15 1.77s0 1.4.15 1.77a2 2 0 0 0 1.08 1.08c.37.15.84.15 1.77.15h2c.93 0 1.4 0 1.77-.15a2 2 0 0 0 1.08-1.08c.15-.37.15-.84.15-1.77s0-1.4-.15-1.77a2 2 0 0 0-1.08-1.08c-.2-.08-.44-.12-.77-.14"></path>
							<path stroke-width="1.5" d="M2 18.5c0 .93 0 1.4.15 1.77a2 2 0 0 0 1.08 1.08c.37.15.84.15 1.77.15h2c.93 0 1.4 0 1.77-.15a2 2 0 0 0 1.08-1.08c.15-.37.15-.84.15-1.77s0-1.4-.15-1.77a2 2 0 0 0-1.08-1.08c-.37-.15-.84-.15-1.77-.15H5c-.93 0-1.4 0-1.77.15a2 2 0 0 0-1.08 1.08C2 17.1 2 17.57 2 18.5Z"></path>
						</svg>