<svg class="bi me-2" xmlns="http://www.w3.org/2000/svg" height="1.6em" stroke="currentColor" fill="none" viewBox="0 0 24 24">
							<path stroke-linecap="round" stroke-width="1.5" d="M22 22H2"></path>
							<path stroke-width="1.5" d="M21 22v-7.5c0-.83-.67-1.5-1.5-1.5h-3c-.83 0-1.5.67-1.5 1.5V22"></path>
							<path stroke-linecap="round" stroke-linejoin="round" stroke-width="1.5" d="M15 22V9M9 22V5c0-1.41 0-2.12.44-2.56C9.88 2 10.59 2 12 2c1.41 0 2.12 0 2.56.44C15 2.88 15 3.59 15 5v0"></path>
							<path stroke-linecap="round" stroke-width="1.5" d="M9 22V9.5C9 8.67 8.33 8 7.5 8h-3C3.67 8 3 8.67 3 9.5V16m0 6v-2.25"></path>
						</svg>