<svg width="74" height="77" viewBox="0 0 74 77" fill="none" xmlns="http://www.w3.org/2000/svg">
<path d="M0.557646 74.9334C0.599016 75.7608 1.30329 76.398 2.13068 76.3566C2.95807 76.3152 3.59527 75.611 3.5539 74.7836L0.557646 74.9334ZM30.2278 36.972L30.1794 38.4712L31.7278 38.5212V36.972H30.2278ZM30.2278 30.172H31.7278V28.9013L30.4743 28.6924L30.2278 30.172ZM3.5539 74.7836C3.23856 68.4767 4.24358 59.0975 8.19673 51.4558C10.164 47.6529 12.8362 44.3276 16.3931 41.9971C19.9364 39.6756 24.4405 38.2861 30.1794 38.4712L30.2761 35.4728C23.969 35.2694 18.8477 36.8023 14.749 39.4878C10.6639 42.1643 7.67734 45.9306 5.53215 50.0774C1.26038 58.335 0.225357 68.2876 0.557646 74.9334L3.5539 74.7836ZM31.7278 36.972V30.172H28.7278V36.972H31.7278ZM30.4743 28.6924C28.1117 28.2986 26.147 26.7136 24.8091 24.3485C23.4678 21.9775 22.8219 18.9164 23.1 15.8575C23.3772 12.8081 24.5636 9.8427 26.7867 7.59273C28.9942 5.35846 32.326 3.7256 37.0992 3.4983L36.9565 0.501698C31.5296 0.760126 27.4541 2.64876 24.6526 5.48423C21.8666 8.30401 20.4423 11.9566 20.1123 15.5859C19.7832 19.2057 20.5339 22.8841 22.1979 25.8256C23.8654 28.7732 26.5151 31.0739 29.9812 31.6516L30.4743 28.6924Z" fill="black"/>
<path d="M43.7722 30.172V36.972C67.8641 36.1949 72.5919 61.9058 71.9442 74.8585H2M43.7722 30.172C49.6363 29.1946 53.0421 22.3177 52.3824 15.6003C53.0086 25.7033 46.9032 29.5243 43.7722 30.172ZM36.9721 2C41.622 2.22142 45.1111 3.70458 47.5889 5.88579" stroke="black" stroke-width="3"/>
</svg>
