<svg class="bi" xmlns="http://www.w3.org/2000/svg" height="24" stroke="currentColor" fill="none" viewBox="0 0 24 24">
					<circle cx="12" cy="9" r="2" stroke-width="1.5"></circle>
					<path stroke-width="1.5" d="M16 15c0 1.1 0 2-4 2s-4-.9-4-2 1.8-2 4-2 4 .9 4 2Z"></path>
					<path stroke-linecap="round" stroke-width="1.5" d="M3 10.42c0-3.2 0-4.8.38-5.34S5.26 4.03 8.26 3l.58-.2C10.4 2.27 11.19 2 12 2s1.6.27 3.16.8l.58.2c3 1.03 4.5 1.54 4.88 2.08.38.54.38 2.14.38 5.34v1.57a9.3 9.3 0 0 1-2 5.91M3.2 14c.85 4.3 4.38 6.51 6.7 7.53.72.31 1.08.47 2.1.47s1.38-.16 2.1-.47c.58-.26 1.23-.58 1.9-1"></path>
				</svg>